TITLE ""
FILE "DISC2Track15.mp3" MP3
  TRACK 01 AUDIO
    TITLE "DISC2Track15_01"
    INDEX 01 00:00:00
  TRACK 02 AUDIO
    TITLE "DISC2Track15_02"
    INDEX 01 00:03:34
  TRACK 03 AUDIO
    TITLE "DISC2Track15_03"
    INDEX 01 00:03:58
  TRACK 04 AUDIO
    TITLE "DISC2Track15_04"
    INDEX 01 00:06:19
  TRACK 05 AUDIO
    TITLE "DISC2Track15_05"
    INDEX 01 00:08:55
  TRACK 06 AUDIO
    TITLE "DISC2Track15_06"
    INDEX 01 00:11:10
  TRACK 07 AUDIO
    TITLE "DISC2Track15_07"
    INDEX 01 00:11:34
  TRACK 08 AUDIO
    TITLE "DISC2Track15_08"
    INDEX 01 00:14:50
  TRACK 09 AUDIO
    TITLE "DISC2Track15_09"
    INDEX 01 00:17:56
  TRACK 10 AUDIO
    TITLE "DISC2Track15_10"
    INDEX 01 00:20:37
  TRACK 11 AUDIO
    TITLE "DISC2Track15_11"
    INDEX 01 00:21:01
  TRACK 12 AUDIO
    TITLE "DISC2Track15_12"
    INDEX 01 00:23:66
  TRACK 13 AUDIO
    TITLE "DISC2Track15_13"
    INDEX 01 00:26:63
  TRACK 14 AUDIO
    TITLE "DISC2Track15_14"
    INDEX 01 00:29:49
  TRACK 15 AUDIO
    TITLE "DISC2Track15_15"
    INDEX 01 00:29:73
  TRACK 16 AUDIO
    TITLE "DISC2Track15_16"
    INDEX 01 00:32:55
  TRACK 17 AUDIO
    TITLE "DISC2Track15_17"
    INDEX 01 00:35:38
  TRACK 18 AUDIO
    TITLE "DISC2Track15_18"
    INDEX 01 00:38:17
  TRACK 19 AUDIO
    TITLE "DISC2Track15_19"
    INDEX 01 00:38:36
  TRACK 20 AUDIO
    TITLE "DISC2Track15_20"
    INDEX 01 00:41:21
  TRACK 21 AUDIO
    TITLE "DISC2Track15_21"
    INDEX 01 00:43:59
  TRACK 22 AUDIO
    TITLE "DISC2Track15_22"
    INDEX 01 00:46:16
  TRACK 23 AUDIO
    TITLE "DISC2Track15_23"
    INDEX 01 00:46:38
  TRACK 24 AUDIO
    TITLE "DISC2Track15_24"
    INDEX 01 00:49:30
  TRACK 25 AUDIO
    TITLE "DISC2Track15_25"
    INDEX 01 00:52:19
  TRACK 26 AUDIO
    TITLE "DISC2Track15_26"
    INDEX 01 00:55:13
  TRACK 27 AUDIO
    TITLE "DISC2Track15_27"
    INDEX 01 00:55:35
  TRACK 28 AUDIO
    TITLE "DISC2Track15_28"
    INDEX 01 00:59:23
  TRACK 29 AUDIO
    TITLE "DISC2Track15_29"
    INDEX 01 01:02:49
  TRACK 30 AUDIO
    TITLE "DISC2Track15_30"
    INDEX 01 01:05:69
  TRACK 31 AUDIO
    TITLE "DISC2Track15_31"
    INDEX 01 01:06:15
  TRACK 32 AUDIO
    TITLE "DISC2Track15_32"
    INDEX 01 01:10:46
  TRACK 33 AUDIO
    TITLE "DISC2Track15_33"
    INDEX 01 01:14:09
  TRACK 34 AUDIO
    TITLE "DISC2Track15_34"
    INDEX 01 01:17:46
  TRACK 35 AUDIO
    TITLE "DISC2Track15_35"
    INDEX 01 01:17:70
  TRACK 36 AUDIO
    TITLE "DISC2Track15_36"
    INDEX 01 01:22:06
  TRACK 37 AUDIO
    TITLE "DISC2Track15_37"
    INDEX 01 01:25:09
  TRACK 38 AUDIO
    TITLE "DISC2Track15_38"
    INDEX 01 01:28:68
  TRACK 39 AUDIO
    TITLE "DISC2Track15_39"
    INDEX 01 01:29:45
  TRACK 40 AUDIO
    TITLE "DISC2Track15_40"
    INDEX 01 01:33:26
  TRACK 41 AUDIO
    TITLE "DISC2Track15_41"
    INDEX 01 01:36:20
  TRACK 42 AUDIO
    TITLE "DISC2Track15_42"
    INDEX 01 01:39:05
